<svg class="hidden" display="none"
xmlns="http://www.w3.org/2000/svg">
  <symbol  viewBox="0 0 268.832 268.832" id="arrow-right">
    <path d="M265.171 125.577l-80-80c-4.881-4.881-12.797-4.881-17.678 0-4.882 4.882-4.882 12.796 0 17.678l58.661 58.661H12.5c-6.903 0-12.5 5.597-12.5 12.5 0 6.902 5.597 12.5 12.5 12.5h213.654l-58.659 58.661c-4.882 4.882-4.882 12.796 0 17.678 2.44 2.439 5.64 3.661 8.839 3.661s6.398-1.222 8.839-3.661l79.998-80c4.882-4.882 4.882-12.796 0-17.678z"></path>
  </symbol>
  <symbol viewBox="0 0 18 12" id="arrow">
    <path d="M1.5 6h15m0 0l-5-5m5 5l-5 5" stroke="#fff" stroke-width="2" stroke-linecap="round" stroke-linejoin="round"></path>
  </symbol>
<symbol viewBox="0 0 8 8" id="lock">
<path d="M1.14282 3.92857C1.14282 2.31116 2.45399 1 4.07139 1C5.6888 1 6.99997 2.31117 6.99997 3.92857V6.85714H1.14282V3.92857Z"/>
</symbol>

  <symbol viewBox="0 0 401.998 401.998" id="padlock">
    <path d="M357.45 190.721c-5.331-5.33-11.8-7.993-19.417-7.993h-9.131v-54.821c0-35.022-12.559-65.093-37.685-90.218C266.093 12.563 236.025 0 200.998 0c-35.026 0-65.1 12.563-90.222 37.688-25.126 25.126-37.685 55.196-37.685 90.219v54.821h-9.135c-7.611 0-14.084 2.663-19.414 7.993-5.33 5.326-7.994 11.799-7.994 19.417V374.59c0 7.611 2.665 14.086 7.994 19.417 5.33 5.325 11.803 7.991 19.414 7.991H338.04c7.617 0 14.085-2.663 19.417-7.991 5.325-5.331 7.994-11.806 7.994-19.417V210.135c.004-7.612-2.669-14.084-8.001-19.414zm-83.363-7.993H127.909v-54.821c0-20.175 7.139-37.402 21.414-51.675 14.277-14.275 31.501-21.411 51.678-21.411 20.179 0 37.399 7.135 51.677 21.411 14.271 14.272 21.409 31.5 21.409 51.675v54.821z"></path>
  </symbol>
</svg>