<svg class="hidden" display="none"
xmlns="http://www.w3.org/2000/svg">
  <symbol  viewBox="0 0 268.832 268.832" id="arrow-right">
    <path d="M265.171 125.577l-80-80c-4.881-4.881-12.797-4.881-17.678 0-4.882 4.882-4.882 12.796 0 17.678l58.661 58.661H12.5c-6.903 0-12.5 5.597-12.5 12.5 0 6.902 5.597 12.5 12.5 12.5h213.654l-58.659 58.661c-4.882 4.882-4.882 12.796 0 17.678 2.44 2.439 5.64 3.661 8.839 3.661s6.398-1.222 8.839-3.661l79.998-80c4.882-4.882 4.882-12.796 0-17.678z"></path>
  </symbol>
  <symbol viewBox="0 0 18 12" id="arrow">
    <path d="M1.5 6h15m0 0l-5-5m5 5l-5 5" stroke="#fff" stroke-width="2" stroke-linecap="round" stroke-linejoin="round"></path>
  </symbol>
</svg>